<?xml version="1.0" encoding="UTF-8"?>
<svg xmlns="http://www.w3.org/2000/svg" xmlns:xlink="http://www.w3.org/1999/xlink" width="40pt" height="56pt" viewBox="0 0 40 56" version="1.1">
<g id="surface1">
<path style=" stroke:none;fill-rule:evenodd;fill:rgb(17.254902%,17.254902%,16.862745%);fill-opacity:1;" d="M 8.457031 46.957031 C 8.542969 46.941406 8.628906 46.949219 8.703125 46.980469 C 8.765625 46.898438 8.859375 46.835938 8.96875 46.816406 C 9.117188 46.789062 9.261719 46.839844 9.359375 46.9375 C 10.15625 46.804688 10.925781 46.644531 11.683594 46.464844 C 12.457031 46.28125 13.222656 46.066406 13.988281 45.828125 C 14.664062 45.621094 15.3125 45.339844 15.960938 45.046875 C 15.824219 44.808594 15.703125 44.558594 15.59375 44.304688 C 15.542969 44.179688 15.492188 44.050781 15.449219 43.917969 C 15.015625 43.875 14.585938 43.820312 14.15625 43.753906 C 13.984375 43.726562 13.640625 43.675781 13.292969 43.625 C 11.507812 43.367188 9.683594 43.105469 8.101562 42.1875 C 7.007812 41.550781 6.117188 40.746094 5.527344 39.761719 C 4.980469 38.847656 4.695312 37.785156 4.757812 36.5625 C 4.835938 35.070312 5.378906 33.671875 6.136719 32.359375 C 6.878906 31.078125 7.824219 29.878906 8.742188 28.75 C 9.554688 27.746094 10.503906 26.871094 11.46875 26.007812 C 11.234375 25.167969 11.128906 24.3125 11.1875 23.457031 C 9.761719 22.828125 8.355469 22.207031 6.972656 21.308594 C 6.46875 20.980469 5.773438 20.453125 5.339844 19.859375 C 4.988281 19.375 4.804688 18.84375 4.992188 18.3125 C 5.210938 17.699219 5.648438 17.238281 6.191406 16.902344 C 6.8125 16.523438 7.570312 16.3125 8.28125 16.230469 C 9.597656 16.078125 10.921875 16.132812 12.171875 16.421875 C 13.363281 16.695312 14.484375 17.179688 15.464844 17.894531 C 15.792969 18.132812 16.074219 18.464844 16.296875 18.847656 C 16.375 18.855469 16.453125 18.863281 16.53125 18.875 C 17.339844 18.992188 18.179688 19.355469 18.878906 19.890625 C 18.917969 19.824219 18.949219 19.753906 18.953125 19.671875 C 18.96875 19.160156 18.15625 19.03125 18.132812 17.921875 C 18.117188 17.175781 18.894531 16.78125 18.9375 15.984375 C 18.96875 15.335938 18.714844 14.636719 18.503906 13.996094 C 18.371094 13.601562 18.210938 13.175781 17.914062 12.914062 C 17.6875 12.714844 17.328125 12.863281 17.0625 12.726562 C 16.957031 12.671875 17.007812 12.421875 16.894531 12.382812 C 15.804688 12.003906 15.222656 11.539062 14.964844 10.664062 C 14.882812 10.378906 14.886719 10.195312 15.195312 10.058594 C 15.769531 9.804688 17.195312 9.609375 18.941406 9.5625 C 18.847656 9.472656 18.707031 9.347656 18.703125 9.246094 C 18.699219 9.085938 18.882812 8.988281 18.953125 8.851562 C 19.027344 8.703125 19.191406 8.542969 19.136719 8.386719 C 19.082031 8.230469 18.828125 8.296875 18.71875 8.179688 C 18.660156 8.117188 18.660156 7.992188 18.6875 7.90625 C 18.757812 7.6875 18.988281 7.535156 18.996094 7.304688 C 19.003906 7.101562 18.363281 6.753906 18.363281 6.34375 C 18.363281 6.105469 18.695312 5.984375 18.71875 5.746094 C 18.753906 5.421875 17.375 4.816406 17.746094 4.304688 C 18.1875 3.695312 19.066406 3.6875 19.769531 3.6875 C 20.476562 3.6875 21.355469 3.695312 21.796875 4.304688 C 22.167969 4.816406 20.789062 5.421875 20.824219 5.746094 C 20.847656 5.984375 21.179688 6.105469 21.179688 6.34375 C 21.179688 6.753906 20.539062 7.101562 20.542969 7.304688 C 20.554688 7.535156 20.785156 7.6875 20.855469 7.90625 C 20.882812 7.992188 20.882812 8.117188 20.824219 8.179688 C 20.714844 8.296875 20.460938 8.230469 20.40625 8.386719 C 20.351562 8.542969 20.515625 8.703125 20.589844 8.851562 C 20.660156 8.988281 20.84375 9.085938 20.839844 9.246094 C 20.835938 9.347656 20.695312 9.472656 20.601562 9.566406 C 22.320312 9.613281 23.730469 9.800781 24.308594 10.050781 C 24.601562 10.179688 24.664062 10.355469 24.582031 10.640625 C 24.328125 11.53125 23.746094 12 22.648438 12.382812 C 22.535156 12.421875 22.585938 12.671875 22.476562 12.726562 C 22.214844 12.863281 21.855469 12.714844 21.628906 12.914062 C 21.332031 13.175781 21.171875 13.601562 21.039062 13.996094 C 20.828125 14.636719 20.574219 15.335938 20.605469 15.984375 C 20.648438 16.78125 21.425781 17.175781 21.410156 17.921875 C 21.386719 19.03125 20.574219 19.160156 20.589844 19.671875 C 20.601562 19.902344 20.820312 20.046875 20.902344 20.273438 C 20.960938 20.441406 20.933594 20.671875 20.808594 20.804688 C 20.730469 20.886719 20.613281 20.878906 20.621094 21.097656 C 20.632812 21.453125 21.050781 21.628906 21.273438 21.886719 C 21.457031 22.101562 21.566406 22.4375 21.566406 22.742188 C 21.5625 23.171875 21.476562 23.652344 21.257812 23.976562 C 21.148438 24.132812 20.984375 24.246094 20.917969 24.425781 C 20.875 24.535156 20.910156 24.671875 20.945312 24.785156 C 20.992188 24.925781 21.125 25.019531 21.164062 25.160156 C 21.207031 25.328125 21.230469 25.515625 21.179688 25.675781 C 21.109375 25.902344 20.882812 26.046875 20.824219 26.277344 C 20.789062 26.40625 20.851562 26.558594 20.917969 26.671875 C 20.925781 26.6875 20.933594 26.703125 20.945312 26.71875 C 21.425781 26.238281 21.894531 25.839844 22.40625 25.535156 C 22.363281 25.351562 22.445312 25.15625 22.621094 25.066406 C 22.761719 24.996094 22.925781 25.011719 23.046875 25.09375 C 23.660156 24.78125 24.238281 24.5 24.8125 24.238281 C 23.804688 23.316406 22.878906 22.464844 22.648438 21.011719 C 22.5625 20.449219 22.761719 19.851562 23.101562 19.316406 C 23.480469 18.71875 24.046875 18.183594 24.5625 17.878906 C 25.535156 17.3125 26.621094 16.945312 27.75 16.726562 C 28.859375 16.507812 30.015625 16.433594 31.140625 16.445312 C 31.820312 16.453125 32.617188 16.578125 33.296875 16.875 C 33.878906 17.132812 34.378906 17.515625 34.660156 18.0625 L 34.65625 18.0625 C 34.851562 18.441406 34.84375 18.894531 34.71875 19.316406 C 34.582031 19.769531 34.300781 20.210938 33.992188 20.464844 C 33.046875 21.246094 32.007812 21.902344 30.933594 22.472656 C 29.871094 23.039062 28.773438 23.523438 27.707031 23.964844 C 27.554688 24.027344 27.40625 24.089844 27.261719 24.152344 C 27.28125 24.320312 27.199219 24.492188 27.039062 24.578125 C 26.855469 24.667969 26.636719 24.617188 26.515625 24.464844 L 26.425781 24.503906 C 26.566406 24.640625 26.710938 24.773438 26.851562 24.90625 C 29.292969 27.199219 31.460938 29.238281 33.179688 31.882812 C 33.78125 32.804688 34.261719 33.808594 34.558594 34.859375 C 34.828125 35.820312 34.941406 36.820312 34.84375 37.828125 C 34.726562 39.023438 34.117188 40.300781 32.976562 41.347656 C 32.089844 42.167969 30.882812 42.847656 29.34375 43.242188 C 29.425781 44.050781 29.222656 44.847656 28.746094 45.5 C 28.445312 45.914062 28.039062 46.269531 27.527344 46.53125 C 28.113281 46.664062 28.703125 46.78125 29.308594 46.898438 C 29.636719 46.960938 29.964844 47.027344 30.351562 47.105469 C 30.453125 46.988281 30.613281 46.929688 30.773438 46.960938 C 30.882812 46.984375 30.976562 47.046875 31.035156 47.132812 C 31.109375 47.105469 31.195312 47.09375 31.28125 47.113281 C 31.390625 47.136719 31.480469 47.199219 31.539062 47.285156 C 31.617188 47.253906 31.703125 47.246094 31.789062 47.265625 C 31.898438 47.289062 31.988281 47.351562 32.046875 47.433594 C 32.121094 47.40625 32.207031 47.394531 32.292969 47.414062 C 32.402344 47.4375 32.492188 47.503906 32.550781 47.585938 C 32.625 47.554688 32.714844 47.546875 32.800781 47.566406 C 32.910156 47.589844 33 47.65625 33.054688 47.738281 C 33.132812 47.707031 33.21875 47.695312 33.308594 47.71875 C 33.417969 47.742188 33.507812 47.804688 33.5625 47.890625 C 33.636719 47.855469 33.726562 47.847656 33.816406 47.867188 C 33.925781 47.894531 34.015625 47.957031 34.066406 48.039062 C 34.140625 48.007812 34.230469 47.996094 34.324219 48.019531 C 34.433594 48.042969 34.519531 48.109375 34.570312 48.191406 C 34.644531 48.15625 34.738281 48.148438 34.828125 48.167969 C 34.9375 48.195312 35.027344 48.261719 35.074219 48.34375 C 35.148438 48.308594 35.242188 48.296875 35.335938 48.320312 C 35.445312 48.347656 35.535156 48.414062 35.582031 48.492188 C 35.652344 48.457031 35.746094 48.445312 35.84375 48.472656 C 35.953125 48.5 36.042969 48.566406 36.085938 48.644531 C 36.15625 48.609375 36.253906 48.597656 36.351562 48.621094 C 36.460938 48.648438 36.546875 48.71875 36.589844 48.796875 C 36.660156 48.757812 36.757812 48.746094 36.859375 48.773438 C 37.027344 48.816406 37.140625 48.953125 37.109375 49.074219 L 37.035156 49.363281 C 37.003906 49.484375 36.839844 49.546875 36.667969 49.503906 C 36.574219 49.480469 36.496094 49.425781 36.453125 49.363281 C 36.378906 49.417969 36.265625 49.4375 36.152344 49.410156 C 36.058594 49.386719 35.980469 49.332031 35.933594 49.269531 C 35.859375 49.320312 35.75 49.339844 35.636719 49.3125 C 35.542969 49.289062 35.464844 49.238281 35.417969 49.175781 C 35.339844 49.226562 35.230469 49.246094 35.121094 49.21875 C 35.027344 49.195312 34.949219 49.144531 34.898438 49.078125 C 34.820312 49.128906 34.714844 49.148438 34.605469 49.121094 C 34.511719 49.101562 34.433594 49.050781 34.382812 48.984375 C 34.300781 49.035156 34.195312 49.050781 34.089844 49.027344 C 33.996094 49.003906 33.917969 48.957031 33.867188 48.890625 C 33.785156 48.9375 33.679688 48.957031 33.570312 48.933594 C 33.480469 48.910156 33.402344 48.859375 33.347656 48.796875 C 33.265625 48.84375 33.160156 48.859375 33.054688 48.835938 C 32.964844 48.816406 32.886719 48.765625 32.832031 48.703125 C 32.746094 48.746094 32.644531 48.765625 32.539062 48.742188 C 32.445312 48.722656 32.367188 48.671875 32.3125 48.605469 C 32.230469 48.652344 32.125 48.667969 32.023438 48.644531 C 31.929688 48.625 31.851562 48.578125 31.796875 48.511719 C 31.710938 48.558594 31.609375 48.574219 31.507812 48.550781 C 31.414062 48.53125 31.335938 48.484375 31.277344 48.417969 C 31.191406 48.460938 31.09375 48.476562 30.992188 48.457031 C 30.898438 48.4375 30.820312 48.386719 30.761719 48.324219 C 30.675781 48.367188 30.574219 48.382812 30.476562 48.359375 C 30.285156 48.320312 30.148438 48.160156 30.132812 47.980469 C 29.824219 47.917969 29.476562 47.847656 29.136719 47.78125 C 28.011719 47.5625 26.925781 47.351562 25.851562 47.015625 C 25.523438 47.070312 25.191406 47.105469 24.859375 47.132812 C 24.933594 47.15625 25.011719 47.179688 25.085938 47.207031 C 25.578125 47.378906 26.199219 47.621094 26.703125 47.957031 C 27.289062 48.347656 27.71875 48.863281 27.675781 49.546875 C 27.632812 50.183594 27.300781 50.714844 26.828125 51.152344 C 26.261719 51.679688 25.492188 52.070312 24.820312 52.324219 C 24.152344 52.574219 23.433594 52.75 22.707031 52.851562 C 21.933594 52.960938 21.148438 52.992188 20.40625 52.953125 C 19.550781 52.90625 18.722656 52.808594 17.914062 52.640625 C 17.101562 52.472656 16.300781 52.226562 15.503906 51.886719 C 15.039062 51.6875 14.632812 51.472656 14.332031 51.207031 C 13.980469 50.890625 13.773438 50.515625 13.773438 50.035156 C 13.777344 49.417969 14.15625 48.941406 14.683594 48.566406 C 14.757812 48.515625 14.835938 48.464844 14.914062 48.414062 C 14.890625 48.402344 14.867188 48.390625 14.847656 48.378906 C 14.789062 48.4375 14.707031 48.480469 14.613281 48.496094 C 14.503906 48.511719 14.402344 48.484375 14.324219 48.429688 C 14.265625 48.492188 14.183594 48.535156 14.089844 48.550781 C 13.980469 48.566406 13.878906 48.539062 13.800781 48.484375 C 13.746094 48.542969 13.664062 48.589844 13.570312 48.605469 C 13.457031 48.621094 13.351562 48.59375 13.277344 48.539062 C 13.222656 48.597656 13.140625 48.644531 13.046875 48.65625 C 12.933594 48.675781 12.828125 48.648438 12.753906 48.589844 C 12.699219 48.652344 12.621094 48.695312 12.523438 48.710938 C 12.410156 48.730469 12.300781 48.703125 12.230469 48.644531 C 12.179688 48.703125 12.097656 48.75 12.003906 48.765625 C 11.886719 48.785156 11.773438 48.757812 11.707031 48.699219 C 11.65625 48.757812 11.574219 48.804688 11.480469 48.820312 C 11.308594 48.851562 11.148438 48.773438 11.125 48.652344 L 11.074219 48.355469 C 11.054688 48.234375 11.179688 48.105469 11.351562 48.078125 C 11.453125 48.058594 11.550781 48.078125 11.617188 48.121094 C 11.664062 48.046875 11.757812 47.984375 11.867188 47.964844 C 11.96875 47.949219 12.0625 47.96875 12.132812 48.011719 C 12.179688 47.933594 12.273438 47.875 12.386719 47.855469 C 12.484375 47.839844 12.578125 47.859375 12.644531 47.898438 C 12.699219 47.824219 12.792969 47.765625 12.902344 47.746094 C 13 47.730469 13.089844 47.75 13.160156 47.789062 C 13.214844 47.710938 13.308594 47.652344 13.421875 47.636719 C 13.515625 47.621094 13.605469 47.636719 13.675781 47.679688 C 13.734375 47.601562 13.828125 47.542969 13.9375 47.527344 C 14.03125 47.511719 14.121094 47.527344 14.191406 47.566406 C 14.25 47.488281 14.34375 47.433594 14.457031 47.414062 C 14.546875 47.402344 14.636719 47.417969 14.707031 47.457031 C 14.769531 47.378906 14.863281 47.320312 14.972656 47.304688 C 15.0625 47.292969 15.152344 47.308594 15.222656 47.347656 C 15.285156 47.265625 15.378906 47.210938 15.492188 47.195312 C 15.582031 47.183594 15.667969 47.199219 15.738281 47.234375 C 15.804688 47.15625 15.898438 47.101562 16.007812 47.085938 C 16.03125 47.082031 16.054688 47.082031 16.078125 47.082031 C 16.386719 46.957031 17.480469 46.753906 17.648438 46.726562 C 17.324219 46.558594 17.023438 46.34375 16.753906 46.089844 C 16.660156 45.996094 16.570312 45.898438 16.480469 45.796875 C 15.757812 46.132812 15.023438 46.449219 14.257812 46.6875 C 13.488281 46.929688 12.703125 47.144531 11.898438 47.339844 C 11.136719 47.519531 10.371094 47.679688 9.59375 47.8125 C 9.585938 48.007812 9.441406 48.179688 9.242188 48.21875 C 9.140625 48.238281 9.039062 48.222656 8.957031 48.175781 C 8.894531 48.242188 8.816406 48.289062 8.722656 48.304688 C 8.621094 48.324219 8.519531 48.308594 8.4375 48.261719 C 8.378906 48.324219 8.296875 48.371094 8.203125 48.390625 C 8.101562 48.410156 8 48.394531 7.917969 48.347656 C 7.859375 48.410156 7.78125 48.457031 7.6875 48.476562 C 7.582031 48.496094 7.480469 48.480469 7.398438 48.433594 C 7.339844 48.496094 7.261719 48.542969 7.167969 48.5625 C 7.066406 48.585938 6.960938 48.566406 6.878906 48.515625 C 6.824219 48.582031 6.746094 48.628906 6.652344 48.648438 C 6.546875 48.671875 6.441406 48.652344 6.359375 48.601562 C 6.304688 48.667969 6.226562 48.714844 6.132812 48.734375 C 6.027344 48.757812 5.921875 48.738281 5.839844 48.6875 C 5.789062 48.75 5.707031 48.800781 5.617188 48.820312 C 5.507812 48.84375 5.402344 48.824219 5.320312 48.773438 C 5.269531 48.835938 5.191406 48.886719 5.097656 48.90625 C 4.988281 48.929688 4.882812 48.910156 4.804688 48.859375 C 4.753906 48.921875 4.671875 48.972656 4.582031 48.992188 C 4.46875 49.015625 4.359375 48.996094 4.285156 48.945312 C 4.234375 49.007812 4.15625 49.058594 4.0625 49.078125 C 3.949219 49.105469 3.839844 49.082031 3.765625 49.027344 C 3.714844 49.089844 3.640625 49.140625 3.542969 49.164062 C 3.429688 49.191406 3.316406 49.167969 3.246094 49.113281 C 3.199219 49.175781 3.121094 49.226562 3.027344 49.25 C 2.855469 49.289062 2.691406 49.226562 2.664062 49.101562 L 2.59375 48.8125 C 2.5625 48.691406 2.679688 48.554688 2.851562 48.515625 C 2.953125 48.492188 3.050781 48.503906 3.117188 48.542969 C 3.160156 48.464844 3.25 48.398438 3.359375 48.375 C 3.460938 48.351562 3.554688 48.363281 3.625 48.402344 C 3.671875 48.324219 3.761719 48.257812 3.871094 48.230469 C 3.96875 48.210938 4.0625 48.222656 4.132812 48.261719 C 4.179688 48.179688 4.269531 48.117188 4.378906 48.089844 C 4.476562 48.070312 4.566406 48.082031 4.640625 48.117188 C 4.691406 48.039062 4.78125 47.972656 4.890625 47.949219 C 4.984375 47.929688 5.074219 47.941406 5.148438 47.976562 C 5.199219 47.894531 5.289062 47.832031 5.398438 47.808594 C 5.492188 47.789062 5.582031 47.800781 5.65625 47.835938 C 5.710938 47.753906 5.800781 47.6875 5.910156 47.664062 C 6 47.648438 6.089844 47.65625 6.164062 47.691406 C 6.21875 47.609375 6.308594 47.546875 6.417969 47.523438 C 6.507812 47.503906 6.597656 47.515625 6.671875 47.550781 C 6.726562 47.46875 6.820312 47.40625 6.929688 47.382812 C 7.015625 47.363281 7.105469 47.375 7.179688 47.40625 C 7.238281 47.324219 7.328125 47.261719 7.4375 47.242188 C 7.527344 47.222656 7.613281 47.234375 7.6875 47.265625 C 7.746094 47.183594 7.839844 47.121094 7.949219 47.097656 C 8.035156 47.082031 8.121094 47.09375 8.195312 47.125 C 8.257812 47.039062 8.347656 46.980469 8.457031 46.957031 Z M 13.242188 23.109375 C 13.382812 23.191406 13.457031 23.339844 13.449219 23.492188 C 13.605469 23.566406 13.761719 23.640625 13.917969 23.71875 C 14.601562 23.003906 15.21875 22.246094 15.699219 21.398438 C 15.917969 21.015625 15.925781 20.488281 15.789062 19.980469 C 15.769531 19.898438 15.742188 19.820312 15.714844 19.742188 C 14.898438 19.808594 14.136719 20.195312 13.519531 20.746094 C 12.855469 21.34375 12.367188 22.128906 12.179688 22.910156 C 12.371094 22.992188 12.558594 23.078125 12.746094 23.164062 C 12.878906 23.046875 13.078125 23.015625 13.242188 23.109375 Z M 13.007812 24.277344 C 12.875 24.375 12.695312 24.390625 12.546875 24.304688 C 12.417969 24.230469 12.34375 24.101562 12.335938 23.96875 C 12.25 23.929688 12.167969 23.890625 12.082031 23.851562 C 12.074219 24.339844 12.128906 24.832031 12.234375 25.320312 C 12.574219 25.015625 12.914062 24.707031 13.242188 24.390625 C 13.164062 24.355469 13.085938 24.316406 13.007812 24.277344 Z M 26.398438 23.351562 C 26.53125 23.285156 26.683594 23.292969 26.804688 23.363281 C 26.988281 23.289062 27.171875 23.210938 27.359375 23.132812 C 28.402344 22.699219 29.472656 22.230469 30.503906 21.679688 C 31.527344 21.136719 32.515625 20.511719 33.40625 19.773438 C 33.589844 19.625 33.761719 19.351562 33.847656 19.0625 C 33.914062 18.839844 33.929688 18.621094 33.851562 18.472656 L 33.847656 18.472656 C 33.671875 18.125 33.332031 17.875 32.929688 17.695312 C 32.375 17.453125 31.707031 17.351562 31.132812 17.34375 C 30.070312 17.332031 28.976562 17.402344 27.925781 17.609375 C 26.890625 17.808594 25.898438 18.140625 25.027344 18.652344 C 24.617188 18.894531 24.171875 19.320312 23.867188 19.796875 C 23.636719 20.164062 23.496094 20.550781 23.546875 20.875 C 23.726562 22.023438 24.550781 22.773438 25.445312 23.589844 C 25.53125 23.667969 25.621094 23.75 25.710938 23.835938 C 25.867188 23.765625 26.023438 23.699219 26.179688 23.628906 C 26.207031 23.515625 26.285156 23.410156 26.398438 23.351562 Z M 23.484375 25.878906 C 23.503906 26.042969 23.417969 26.210938 23.261719 26.292969 C 23.109375 26.371094 22.929688 26.347656 22.804688 26.246094 C 22.269531 26.621094 21.804688 27.027344 21.40625 27.460938 C 21.507812 27.65625 21.59375 27.859375 21.613281 28.078125 C 21.628906 28.28125 21.566406 28.503906 21.472656 28.679688 C 21.40625 28.800781 21.269531 28.925781 21.273438 29.039062 C 21.277344 29.238281 21.371094 29.335938 21.496094 29.484375 C 21.679688 29.703125 21.789062 30 21.859375 30.289062 C 21.910156 30.5 21.941406 30.730469 21.890625 30.941406 C 21.863281 31.0625 21.667969 31.078125 21.644531 31.199219 C 21.574219 31.570312 21.65625 31.957031 21.628906 32.332031 C 21.589844 32.808594 21.507812 33.28125 21.441406 33.753906 C 21.386719 34.164062 21.273438 34.5625 21.257812 34.972656 L 21.253906 35.011719 C 21.375 35.089844 21.492188 35.167969 21.613281 35.246094 C 21.792969 35.363281 22.09375 35.558594 22.398438 35.753906 C 25.183594 37.546875 28.28125 39.539062 29.152344 42.363281 C 30.519531 42.003906 31.582031 41.40625 32.359375 40.691406 C 33.324219 39.796875 33.84375 38.730469 33.941406 37.742188 C 34.027344 36.851562 33.925781 35.960938 33.683594 35.101562 C 33.414062 34.140625 32.96875 33.21875 32.417969 32.367188 C 30.757812 29.816406 28.621094 27.8125 26.222656 25.554688 C 25.996094 25.339844 25.761719 25.121094 25.527344 24.902344 L 25.464844 24.929688 C 24.816406 25.222656 24.167969 25.53125 23.484375 25.878906 Z M 15.234375 42.992188 C 15.210938 42.792969 15.199219 42.597656 15.207031 42.398438 C 15.230469 41.878906 15.449219 41.359375 15.734375 40.941406 C 16.21875 40.238281 16.929688 39.765625 17.464844 39.105469 C 17.785156 38.714844 18.183594 38.320312 18.285156 37.804688 C 18.46875 36.882812 18.328125 35.914062 18.285156 34.972656 C 18.269531 34.628906 18.191406 34.292969 18.132812 33.953125 C 17.984375 33.84375 17.835938 33.734375 17.6875 33.621094 C 16.609375 32.808594 15.578125 31.941406 14.53125 30.933594 C 13.421875 29.863281 12.488281 28.578125 11.890625 27.203125 C 11.855469 27.113281 11.816406 27.027344 11.785156 26.941406 C 10.949219 27.695312 10.136719 28.464844 9.449219 29.3125 C 8.558594 30.410156 7.636719 31.574219 6.925781 32.808594 C 6.230469 34.011719 5.734375 35.277344 5.667969 36.605469 C 5.613281 37.640625 5.851562 38.539062 6.308594 39.304688 C 6.816406 40.152344 7.597656 40.851562 8.5625 41.414062 C 9.984375 42.238281 11.722656 42.488281 13.421875 42.734375 C 13.65625 42.769531 13.890625 42.804688 14.292969 42.867188 C 14.605469 42.914062 14.917969 42.957031 15.234375 42.992188 Z M 17.949219 32.6875 C 17.9375 32.570312 17.925781 32.449219 17.914062 32.332031 C 17.886719 31.957031 17.96875 31.570312 17.898438 31.199219 C 17.875 31.078125 17.679688 31.0625 17.652344 30.941406 C 17.601562 30.730469 17.632812 30.5 17.683594 30.289062 C 17.753906 30 17.859375 29.703125 18.046875 29.484375 C 18.171875 29.335938 18.265625 29.238281 18.269531 29.039062 C 18.273438 28.925781 18.132812 28.800781 18.070312 28.679688 C 17.976562 28.503906 17.914062 28.28125 17.929688 28.078125 C 17.945312 27.886719 18.015625 27.703125 18.101562 27.53125 C 17.285156 26.449219 15.863281 25.726562 14.535156 25.050781 C 14.386719 24.972656 14.238281 24.898438 14.09375 24.824219 C 13.582031 25.324219 13.046875 25.808594 12.507812 26.289062 C 12.574219 26.476562 12.648438 26.660156 12.726562 26.847656 C 13.277344 28.113281 14.136719 29.296875 15.164062 30.289062 C 16.085938 31.175781 17 31.953125 17.949219 32.6875 Z M 18.601562 26.710938 L 18.625 26.671875 C 18.691406 26.558594 18.753906 26.40625 18.71875 26.277344 C 18.660156 26.046875 18.433594 25.902344 18.363281 25.675781 C 18.3125 25.515625 18.335938 25.328125 18.378906 25.164062 C 18.417969 25.019531 18.546875 24.925781 18.59375 24.785156 C 18.632812 24.671875 18.667969 24.535156 18.625 24.425781 C 18.558594 24.246094 18.390625 24.132812 18.285156 23.980469 C 18.066406 23.65625 17.980469 23.171875 17.976562 22.742188 C 17.972656 22.4375 18.085938 22.101562 18.269531 21.886719 C 18.480469 21.644531 18.859375 21.476562 18.914062 21.160156 C 18.828125 21.0625 18.738281 20.964844 18.640625 20.875 C 18.09375 20.351562 17.382812 19.976562 16.683594 19.816406 C 16.859375 20.515625 16.824219 21.257812 16.492188 21.839844 C 16.011719 22.691406 15.414062 23.445312 14.757812 24.152344 L 14.953125 24.25 C 16.265625 24.917969 17.664062 25.632812 18.601562 26.710938 Z M 21.1875 36.042969 C 21.152344 36.636719 21.140625 37.230469 21.257812 37.804688 C 21.359375 38.320312 21.757812 38.714844 22.074219 39.105469 C 22.609375 39.765625 23.324219 40.238281 23.808594 40.941406 C 24.09375 41.359375 24.3125 41.878906 24.335938 42.402344 C 24.34375 42.667969 24.324219 42.941406 24.277344 43.207031 C 24.382812 43.167969 24.488281 43.144531 24.59375 43.128906 C 24.839844 43.089844 25.183594 43.042969 25.53125 42.996094 C 26.398438 42.875 27.304688 42.746094 28.261719 42.558594 C 27.453125 40.082031 24.53125 38.199219 21.90625 36.507812 C 21.695312 36.371094 21.488281 36.238281 21.1875 36.042969 Z M 23.1875 45.640625 C 23.0625 45.800781 22.929688 45.953125 22.789062 46.089844 C 22.730469 46.140625 22.675781 46.191406 22.617188 46.242188 C 22.890625 46.257812 23.164062 46.269531 23.433594 46.273438 C 23.609375 46.277344 23.789062 46.277344 23.964844 46.273438 C 23.605469 46.089844 23.351562 45.875 23.1875 45.640625 Z M 20.453125 52.054688 C 21.136719 52.089844 21.859375 52.0625 22.578125 51.960938 C 23.238281 51.867188 23.890625 51.710938 24.496094 51.484375 C 25.078125 51.261719 25.742188 50.933594 26.207031 50.5 C 26.523438 50.207031 26.742188 49.867188 26.765625 49.492188 C 26.785156 49.195312 26.539062 48.929688 26.199219 48.703125 C 25.78125 48.425781 25.226562 48.210938 24.78125 48.058594 C 24.617188 48 24.449219 47.945312 24.28125 47.894531 C 23.277344 47.738281 21.769531 47.738281 20.265625 47.878906 C 18.871094 48.007812 17.492188 48.261719 16.539062 48.632812 C 16.09375 48.808594 15.589844 49.027344 15.210938 49.296875 C 14.902344 49.515625 14.679688 49.765625 14.679688 50.035156 C 14.679688 50.226562 14.777344 50.390625 14.941406 50.535156 C 15.15625 50.730469 15.480469 50.898438 15.863281 51.0625 C 16.597656 51.375 17.335938 51.601562 18.097656 51.761719 C 18.863281 51.921875 19.644531 52.011719 20.453125 52.054688 Z M 25.921875 46.09375 C 26.035156 46.074219 26.148438 46.050781 26.261719 46.027344 C 27.0625 45.859375 27.648438 45.472656 28.011719 44.976562 C 28.332031 44.53125 28.480469 43.996094 28.449219 43.441406 C 27.472656 43.632812 26.542969 43.761719 25.652344 43.886719 C 25.371094 43.925781 25.089844 43.964844 24.722656 44.019531 C 24.5 44.050781 24.253906 44.195312 24.070312 44.390625 C 23.96875 44.5 23.890625 44.628906 23.859375 44.753906 C 23.832031 44.859375 23.839844 44.964844 23.890625 45.0625 C 23.964844 45.207031 24.132812 45.355469 24.421875 45.496094 C 24.917969 45.734375 25.417969 45.929688 25.921875 46.09375 Z M 11.339844 22.539062 C 11.597656 21.636719 12.160156 20.753906 12.910156 20.082031 C 13.5625 19.496094 14.363281 19.0625 15.230469 18.902344 C 15.136719 18.792969 15.035156 18.695312 14.925781 18.617188 C 14.050781 17.980469 13.039062 17.542969 11.96875 17.296875 C 10.820312 17.035156 9.601562 16.984375 8.382812 17.125 C 7.789062 17.191406 7.164062 17.363281 6.667969 17.667969 C 6.289062 17.898438 5.988281 18.207031 5.847656 18.609375 C 5.773438 18.816406 5.882812 19.074219 6.074219 19.335938 C 6.421875 19.8125 7.027344 20.269531 7.472656 20.554688 C 8.734375 21.375 10.027344 21.957031 11.339844 22.539062 Z M 11.339844 22.539062 "/>
<path style=" stroke:none;fill-rule:evenodd;fill:rgb(100%,100%,100%);fill-opacity:1;" d="M 19.777344 5.558594 C 20.070312 5.558594 20.347656 5.628906 20.582031 5.75 C 20.328125 5.703125 20.058594 5.679688 19.777344 5.679688 C 19.492188 5.679688 19.222656 5.703125 18.96875 5.75 C 19.203125 5.628906 19.480469 5.558594 19.777344 5.558594 Z M 19.777344 5.558594 "/>
<path style=" stroke:none;fill-rule:evenodd;fill:rgb(100%,100%,100%);fill-opacity:1;" d="M 19.777344 7.191406 C 19.992188 7.191406 20.191406 7.261719 20.363281 7.382812 C 20.179688 7.339844 19.980469 7.3125 19.777344 7.3125 C 19.570312 7.3125 19.371094 7.339844 19.1875 7.382812 C 19.359375 7.261719 19.558594 7.191406 19.777344 7.191406 Z M 19.777344 7.191406 "/>
<path style=" stroke:none;fill-rule:evenodd;fill:rgb(100%,100%,100%);fill-opacity:1;" d="M 19.777344 8.21875 C 19.921875 8.21875 20.058594 8.265625 20.175781 8.347656 C 20.050781 8.316406 19.914062 8.300781 19.777344 8.300781 C 19.636719 8.300781 19.503906 8.316406 19.378906 8.347656 C 19.492188 8.265625 19.628906 8.21875 19.777344 8.21875 Z M 19.777344 8.21875 "/>
<path style=" stroke:none;fill-rule:evenodd;fill:rgb(100%,100%,100%);fill-opacity:1;" d="M 19.777344 16.15625 C 20.070312 16.15625 20.347656 16.226562 20.582031 16.351562 C 20.328125 16.304688 20.058594 16.277344 19.777344 16.277344 C 19.492188 16.277344 19.222656 16.304688 18.96875 16.351562 C 19.203125 16.226562 19.480469 16.15625 19.777344 16.15625 Z M 19.777344 16.15625 "/>
<path style=" stroke:none;fill-rule:evenodd;fill:rgb(100%,100%,100%);fill-opacity:1;" d="M 19.777344 19.578125 C 19.992188 19.578125 20.191406 19.648438 20.363281 19.769531 C 20.179688 19.722656 19.980469 19.699219 19.777344 19.699219 C 19.570312 19.699219 19.371094 19.722656 19.1875 19.769531 C 19.359375 19.648438 19.558594 19.578125 19.777344 19.578125 Z M 19.777344 19.578125 "/>
<path style=" stroke:none;fill-rule:evenodd;fill:rgb(100%,100%,100%);fill-opacity:1;" d="M 19.777344 21.472656 C 20.070312 21.472656 20.347656 21.542969 20.582031 21.667969 C 20.328125 21.621094 20.058594 21.597656 19.777344 21.597656 C 19.492188 21.597656 19.222656 21.621094 18.96875 21.667969 C 19.203125 21.542969 19.480469 21.472656 19.777344 21.472656 Z M 19.777344 21.472656 "/>
<path style=" stroke:none;fill-rule:evenodd;fill:rgb(100%,100%,100%);fill-opacity:1;" d="M 19.777344 24.734375 C 20.070312 24.734375 20.347656 24.804688 20.582031 24.925781 C 20.328125 24.878906 20.058594 24.855469 19.777344 24.855469 C 19.492188 24.855469 19.222656 24.878906 18.96875 24.925781 C 19.203125 24.804688 19.480469 24.734375 19.777344 24.734375 Z M 19.777344 24.734375 "/>
<path style=" stroke:none;fill-rule:evenodd;fill:rgb(100%,100%,100%);fill-opacity:1;" d="M 19.777344 26.792969 C 20.070312 26.792969 20.347656 26.863281 20.582031 26.984375 C 20.328125 26.9375 20.058594 26.914062 19.777344 26.914062 C 19.492188 26.914062 19.222656 26.9375 18.96875 26.984375 C 19.203125 26.863281 19.480469 26.792969 19.777344 26.792969 Z M 19.777344 26.792969 "/>
<path style=" stroke:none;fill-rule:evenodd;fill:rgb(100%,100%,100%);fill-opacity:1;" d="M 19.777344 31.214844 C 20.316406 31.214844 20.820312 31.085938 21.25 30.863281 C 20.785156 30.945312 20.292969 30.992188 19.777344 30.992188 C 19.261719 30.992188 18.765625 30.945312 18.304688 30.863281 C 18.730469 31.085938 19.238281 31.214844 19.777344 31.214844 Z M 19.777344 31.214844 "/>
<path style=" stroke:none;fill-rule:evenodd;fill:rgb(100%,100%,100%);fill-opacity:1;" d="M 19.777344 29.109375 C 20.226562 29.109375 20.648438 29.214844 21.007812 29.402344 C 20.621094 29.332031 20.207031 29.292969 19.777344 29.292969 C 19.34375 29.292969 18.933594 29.332031 18.546875 29.402344 C 18.902344 29.214844 19.324219 29.109375 19.777344 29.109375 Z M 19.777344 29.109375 "/>
<path style=" stroke:none;fill-rule:evenodd;fill:rgb(100%,100%,100%);fill-opacity:1;" d="M 19.777344 24.203125 C 20.070312 24.203125 20.347656 24.136719 20.582031 24.011719 C 20.328125 24.058594 20.058594 24.082031 19.777344 24.082031 C 19.492188 24.082031 19.222656 24.058594 18.96875 24.011719 C 19.203125 24.136719 19.480469 24.203125 19.777344 24.203125 Z M 19.777344 24.203125 "/>
<path style=" stroke:none;fill-rule:evenodd;fill:rgb(100%,100%,100%);fill-opacity:1;" d="M 9.441406 47.613281 C 9.410156 47.234375 9.292969 46.921875 9.054688 46.863281 C 9.308594 46.824219 9.492188 47.167969 9.441406 47.613281 Z M 9.441406 47.613281 "/>
<path style=" stroke:none;fill-rule:evenodd;fill:rgb(100%,100%,100%);fill-opacity:1;" d="M 8.867188 47.769531 C 8.839844 47.386719 8.71875 47.074219 8.484375 47.019531 C 8.734375 46.976562 8.921875 47.320312 8.867188 47.769531 Z M 8.867188 47.769531 "/>
<path style=" stroke:none;fill-rule:evenodd;fill:rgb(100%,100%,100%);fill-opacity:1;" d="M 15.886719 47.992188 C 15.855469 47.609375 15.738281 47.296875 15.5 47.242188 C 15.753906 47.203125 15.9375 47.542969 15.886719 47.992188 Z M 15.886719 47.992188 "/>
<path style=" stroke:none;fill-rule:evenodd;fill:rgb(100%,100%,100%);fill-opacity:1;" d="M 15.335938 47.964844 C 15.308594 47.648438 15.210938 47.390625 15.015625 47.34375 C 15.222656 47.308594 15.378906 47.59375 15.335938 47.964844 Z M 15.335938 47.964844 "/>
<path style=" stroke:none;fill-rule:evenodd;fill:rgb(100%,100%,100%);fill-opacity:1;" d="M 14.8125 48.070312 C 14.789062 47.753906 14.691406 47.492188 14.496094 47.445312 C 14.703125 47.414062 14.855469 47.699219 14.8125 48.070312 Z M 14.8125 48.070312 "/>
<path style=" stroke:none;fill-rule:evenodd;fill:rgb(100%,100%,100%);fill-opacity:1;" d="M 14.246094 48.050781 C 14.226562 47.789062 14.144531 47.578125 13.984375 47.539062 C 14.15625 47.511719 14.28125 47.746094 14.246094 48.050781 Z M 14.246094 48.050781 "/>
<path style=" stroke:none;fill-rule:evenodd;fill:rgb(100%,100%,100%);fill-opacity:1;" d="M 30.3125 47.671875 C 30.394531 47.296875 30.554688 47.003906 30.796875 46.980469 C 30.554688 46.90625 30.324219 47.21875 30.3125 47.671875 Z M 30.3125 47.671875 "/>
<path style=" stroke:none;fill-rule:evenodd;fill:rgb(100%,100%,100%);fill-opacity:1;" d="M 30.863281 47.71875 C 30.929688 47.410156 31.0625 47.167969 31.265625 47.148438 C 31.0625 47.085938 30.871094 47.347656 30.863281 47.71875 Z M 30.863281 47.71875 "/>
<path style=" stroke:none;fill-rule:evenodd;fill:rgb(100%,100%,100%);fill-opacity:1;" d="M 31.363281 47.894531 C 31.429688 47.582031 31.5625 47.339844 31.765625 47.320312 C 31.5625 47.257812 31.371094 47.519531 31.363281 47.894531 Z M 31.363281 47.894531 "/>
<path style=" stroke:none;fill-rule:evenodd;fill:rgb(100%,100%,100%);fill-opacity:1;" d="M 31.929688 47.953125 C 31.984375 47.699219 32.09375 47.5 32.257812 47.484375 C 32.09375 47.433594 31.933594 47.644531 31.929688 47.953125 Z M 31.929688 47.953125 "/>
<path style=" stroke:none;fill-rule:evenodd;fill:rgb(100%,100%,100%);fill-opacity:1;" d="M 3.183594 49.058594 C 3.160156 48.792969 3.078125 48.574219 2.914062 48.535156 C 3.089844 48.507812 3.21875 48.746094 3.183594 49.058594 Z M 3.183594 49.058594 "/>
<path style=" stroke:none;fill-rule:evenodd;fill:rgb(100%,100%,100%);fill-opacity:1;" d="M 11.640625 48.65625 C 11.632812 48.386719 11.558594 48.164062 11.394531 48.117188 C 11.574219 48.097656 11.691406 48.34375 11.640625 48.65625 Z M 11.640625 48.65625 "/>
<path style=" stroke:none;fill-rule:evenodd;fill:rgb(100%,100%,100%);fill-opacity:1;" d="M 36.550781 49.339844 C 36.5625 49.074219 36.632812 48.851562 36.796875 48.804688 C 36.621094 48.785156 36.503906 49.027344 36.550781 49.339844 Z M 36.550781 49.339844 "/>
</g>
</svg>
